<svg version="1" xmlns="http://www.w3.org/2000/svg" width="346.667" height="346.667" viewBox="0 0 260.000000 260.000000"><path d="M21 57v38h14V33h63V19H21v38zM165 27v7h62v61h14V20h-76v7zM86.7 107.7c9 22.5 20.4 50.6 25.1 62.5l8.7 21.8h22.1l25.1-62.3 25.2-62.2-11.2-.3c-10.4-.3-11.2-.1-13.4 2-2.1 2.2-31.9 77.7-34.3 87.1-.6 2.3-1.3 4.9-1.6 5.7-.3.8-1.8-2.3-3.3-7-6.4-19.4-32.2-84.6-34.2-86.3-1.8-1.4-4.1-1.7-13.4-1.7H70.2l16.5 40.7zM22 202v38l37.8-.2 37.7-.3.3-7.2.3-7.3H36v-61H22v38zM227 194.5V225h-62v15h76v-76h-14v30.5z"/></svg>