<svg xmlns="http://www.w3.org/2000/svg" xmlns:xlink="http://www.w3.org/1999/xlink" viewBox="0 0 360 513.915"><defs><style>.a{fill:url(#a);}.b{fill:url(#b);}</style><linearGradient id="a" x1="0.215" y1="0.558" x2="0.842" y2="0.932" gradientUnits="objectBoundingBox"><stop offset="0" stop-color="#a5ddff" stop-opacity="0.149"/><stop offset="1" stop-color="#4cb5f5" stop-opacity="0.6"/></linearGradient><linearGradient id="b" x1="0.5" y1="0.62" x2="1" y2="1" xlink:href="#a"/></defs><g transform="translate(-343.833 -52.085)"><path class="a" d="M2146.667,463s35-61,63-71,64.951-10.913,84-62,47-140,76-157,102.26-26.568,119-133,18-90,18-90V463Z" transform="translate(-1802.833 103)"/><path class="b" d="M2222,517s23-74,59-83c16.452-4.113,72-12,115-40,43-31,38-89,54-121,17.833-39.681,38-68,62-95,37-43,70-174,70-174V517Z" transform="translate(-1878.167 49)"/></g></svg>