<svg xmlns="http://www.w3.org/2000/svg" xmlns:xlink="http://www.w3.org/1999/xlink" viewBox="0 0 640 287"><defs><style>.a{fill:url(#a);}.b{fill:url(#b);}</style><linearGradient id="a" x1="0.215" y1="0.558" x2="0.842" y2="0.932" gradientUnits="objectBoundingBox"><stop offset="0" stop-color="#a5ddff" stop-opacity="0.149"/><stop offset="1" stop-color="#4cb5f5" stop-opacity="0.6"/></linearGradient><linearGradient id="b" x1="0.5" y1="0.62" x2="1" y2="1" xlink:href="#a"/></defs><g transform="translate(-343.833 -52.085)"><path class="a" d="M2146.667,236.085s62.222-34.066,112-39.651S2374.135,190.34,2408,161.81s83.556-78.184,135.111-87.678S2724.907,59.3,2754.667-.143s32-50.261,32-50.261V236.085Z" transform="translate(-1802.833 103)"/><path class="b" d="M2222,290.085s40.888-41.268,104.889-46.287c29.248-2.294,128-6.692,204.444-22.307,76.445-17.288,67.556-49.633,96-67.478,31.7-22.129,67.556-37.922,110.223-52.979C2803.333,77.055,2862,4,2862,4V290.085Z" transform="translate(-1878.167 49)"/></g></svg>