<svg xmlns="http://www.w3.org/2000/svg" xmlns:xlink="http://www.w3.org/1999/xlink" viewBox="0 0 360 245.667"><defs><style>.a{fill:url(#a);}</style><linearGradient id="a" x1="0.488" y1="0.18" x2="0.5" y2="0.963" gradientUnits="objectBoundingBox"><stop offset="0" stop-color="#fffad8" stop-opacity="0.502"/><stop offset="1" stop-color="#ff752d" stop-opacity="0.6"/></linearGradient></defs><path class="a" d="M294,1287.627s21.2-26.338,40-18.294,31.895,23.076,66,9,51-39.075,87-25,58,8,93-18,74-124.667,74-124.667v245.667H294Z" transform="translate(-294 -1110.667)"/><path class="a" d="M296,1302.118s14.75-32.131,47-32.131c16.125,0,30,27.013,51,28.013,23.553,1.339,28-4,49-28.013,25-27.987,31.823-32.7,59-21.987s43.155,27.469,87-6,67-132.667,67-132.667V1355H296Z" transform="translate(-296 -1109.333)"/></svg>