<svg xmlns="http://www.w3.org/2000/svg" xmlns:xlink="http://www.w3.org/1999/xlink" viewBox="0 0 640 232"><defs><style>.a{fill:url(#a);}</style><linearGradient id="a" x1="0.488" y1="0.18" x2="0.5" y2="0.963" gradientUnits="objectBoundingBox"><stop offset="0" stop-color="#fffad8" stop-opacity="0.502"/><stop offset="1" stop-color="#ff752d" stop-opacity="0.8"/></linearGradient></defs><path class="a" d="M294,1277.783s37.7-24.872,71.111-17.276,56.7,21.793,117.333,8.5,90.667-36.9,154.667-23.609,103.111,7.555,165.333-17S934,1110.667,934,1110.667v232H294Z" transform="translate(-294 -1110.667)"/><path class="a" d="M296,1291.394s26.223-30.344,83.555-30.344c28.666,0,53.333,25.51,90.667,26.454,41.872,1.264,49.778-3.777,87.111-26.454,44.444-26.43,56.575-30.879,104.889-20.764s76.72,25.941,154.667-5.666S936,1109.333,936,1109.333v232H296Z" transform="translate(-296 -1109.333)"/></svg>