<svg xmlns="http://www.w3.org/2000/svg" xmlns:xlink="http://www.w3.org/1999/xlink" viewBox="0 0 1324 245.667"><defs><style>.a{fill:url(#a);}</style><linearGradient id="a" x1="0.488" y1="0.18" x2="0.5" y2="0.963" gradientUnits="objectBoundingBox"><stop offset="0" stop-color="#fffad8" stop-opacity="0.502"/><stop offset="1" stop-color="#ff752d" stop-opacity="0.6"/></linearGradient></defs><g transform="translate(0)"><path class="a" d="M294,1287.627s73.255-32.175,142.38-24.131,96.788,28.823,222.219,14.747,145.041-71.052,308.711-30.834,194.275,18.769,314.034,0S1618,1110.667,1618,1110.667v245.667l-1324-1.676Z" transform="translate(-294 -1110.667)"/><path class="a" d="M296,1302.118s49.975-40.164,168.582-40.164c59.3,0,131.933,41.5,178.577,40.164,86.623,1.339,123.937-13.388,178.577-32.131,77.294-29.453,127.936-38.825,227.885-28.114s153.256,46.857,314.508,13.388S1620,1109.333,1620,1109.333V1355H296Z" transform="translate(-296 -1109.333)"/></g></svg>